<?xml version="1.0" standalone="no"?>
<svg viewBox="0 0 200 200" xmlns="http://www.w3.org/2000/svg">
  <path fill="#24A148" d="M33.3,-60.7C33.5,-51.7,17.4,-26.1,10.7,-13C4,0,6.7,0.7,14.1,7.4C21.5,14.1,33.7,26.9,34.6,35.1C35.5,43.3,25.2,47,17.1,42.1C8.9,37.3,2.9,23.8,-4.1,19.3C-11.2,14.8,-19.3,19.3,-21.5,18C-23.7,16.6,-19.8,9.5,-26.2,0.5C-32.6,-8.5,-49.2,-19.3,-47.2,-20.8C-45.3,-22.3,-24.8,-14.5,-13.9,-18.6C-2.9,-22.8,-1.5,-38.7,7.5,-50.4C16.5,-62.2,33.1,-69.7,33.3,-60.7Z" transform="translate(100 100)" />
</svg>
