<?xml version="1.0" standalone="no"?>
<svg viewBox="0 0 200 200" xmlns="http://www.w3.org/2000/svg">
  <path fill="#24A148" d="M34.9,-54.1C46.8,-46.6,59.2,-39.7,61.8,-29.5C64.4,-19.4,57.1,-6.1,47.2,1C37.2,8.2,24.6,9.3,19.8,20.1C15,30.9,18.1,51.5,15.4,52.3C12.6,53.1,4.1,34,-11.6,32.6C-27.3,31.2,-50.2,47.3,-58.1,46C-66,44.7,-58.8,26.1,-60.4,9.2C-61.9,-7.6,-72.2,-22.6,-70.8,-35.1C-69.4,-47.6,-56.4,-57.6,-42.7,-64.2C-28.9,-70.9,-14.5,-74.2,-1.5,-71.9C11.5,-69.6,23,-61.6,34.9,-54.1Z" transform="translate(100 100)" />
</svg>
