<?xml version="1.0" standalone="no"?>
<svg viewBox="0 0 200 200" xmlns="http://www.w3.org/2000/svg">
  <path fill="#08BDBA" d="M39,-70.9C49.5,-61.6,56.2,-48.9,65.6,-36.6C75,-24.2,87.2,-12.1,90.3,1.8C93.5,15.8,87.7,31.5,74.6,37.5C61.5,43.5,41.1,39.7,27.5,42.8C13.8,45.8,6.9,55.6,-3.8,62.2C-14.6,68.8,-29.1,72.3,-38.9,67C-48.6,61.7,-53.5,47.7,-53.5,35.1C-53.6,22.5,-48.9,11.2,-45,2.2C-41.2,-6.8,-38.3,-13.6,-36.1,-22.6C-33.9,-31.5,-32.5,-42.6,-26.6,-54.6C-20.7,-66.6,-10.3,-79.6,2,-83C14.3,-86.4,28.6,-80.3,39,-70.9Z" transform="translate(100 100)" />
</svg>
