<?xml version="1.0" standalone="no"?>
<svg viewBox="0 0 200 200" xmlns="http://www.w3.org/2000/svg">
  <path fill="#24A148" d="M27.5,-46.6C36.9,-36.7,46.8,-31.3,55.3,-22.4C63.9,-13.5,71,-1.1,67.4,8.2C63.7,17.5,49.2,23.8,40.6,37.1C32,50.3,29.4,70.6,20.2,77.3C11,83.9,-4.8,76.9,-16.7,68.2C-28.7,59.6,-36.9,49.3,-44.3,39.2C-51.6,29.1,-58.2,19.2,-58,9.4C-57.7,-0.4,-50.7,-10.2,-44.5,-18.9C-38.3,-27.5,-32.9,-35.1,-25.6,-46C-18.3,-56.9,-9.2,-71.1,-0.1,-71C9,-70.9,18.1,-56.5,27.5,-46.6Z" transform="translate(100 100)" />
</svg>
