<?xml version="1.0" standalone="no"?>
<svg viewBox="0 0 200 200" xmlns="http://www.w3.org/2000/svg">
  <path fill="#8A3FFC" d="M33.8,-71.3C35.1,-57.8,21.5,-31.2,24,-17.1C26.5,-3,45,-1.5,57.7,7.3C70.4,16.1,77.1,32.3,67.9,34.6C58.6,37,33.4,25.6,19.4,30.4C5.4,35.2,2.7,56.2,-1.5,58.9C-5.8,61.5,-11.6,45.9,-14.1,34.4C-16.6,23,-15.8,15.8,-23,10.8C-30.1,5.8,-45.1,2.9,-51,-3.4C-56.8,-9.7,-53.5,-19.3,-48.7,-28.4C-44,-37.6,-37.8,-46.1,-29.4,-55.6C-21.1,-65.1,-10.5,-75.6,2.9,-80.5C16.2,-85.4,32.5,-84.9,33.8,-71.3Z" transform="translate(100 100)" />
</svg>
