<?xml version="1.0" standalone="no"?>
<svg viewBox="0 0 200 200" xmlns="http://www.w3.org/2000/svg">
  <path fill="#24A148" d="M14.3,-23.1C20.8,-18.1,29.8,-17.9,29.5,-14.6C29.2,-11.3,19.7,-4.9,13.7,-1.6C7.6,1.7,5.1,2,7.2,14.7C9.3,27.3,16,52.3,13.5,59C11,65.7,-0.8,54.1,-5.7,42.2C-10.6,30.3,-8.6,18,-17,12.4C-25.3,6.9,-44,7.9,-45.7,5.7C-47.3,3.5,-32,-2.1,-28.7,-14.7C-25.4,-27.2,-34,-46.8,-31.2,-53.5C-28.4,-60.1,-14.2,-53.9,-5.1,-45.9C3.9,-37.9,7.8,-28.1,14.3,-23.1Z" transform="translate(100 100)" />
</svg>
