<?xml version="1.0" standalone="no"?>
<svg viewBox="0 0 200 200" xmlns="http://www.w3.org/2000/svg">
  <path fill="#24A148" d="M41.1,-54.9C52.8,-56.5,61.5,-44.3,62.5,-31.6C63.5,-19,56.9,-5.9,52.8,6.1C48.8,18,47.3,28.9,40,31.2C32.6,33.6,19.5,27.5,7.3,36.2C-4.8,44.9,-15.9,68.4,-26.2,72.9C-36.6,77.4,-46.2,62.9,-53,49.2C-59.8,35.5,-63.8,22.6,-59.9,12.1C-56,1.6,-44.2,-6.6,-34.6,-10.9C-25,-15.1,-17.5,-15.4,-12.1,-16.7C-6.7,-18,-3.4,-20.2,5.7,-29.1C14.7,-37.9,29.4,-53.3,41.1,-54.9Z" transform="translate(100 100)" />
</svg>
