<?xml version="1.0" standalone="no"?>
<svg viewBox="0 0 200 200" xmlns="http://www.w3.org/2000/svg">
  <path fill="#24A148" d="M43.5,-62.8C56.4,-59.3,67,-47.4,74.7,-33.3C82.4,-19.2,87.2,-3,81.9,9.6C76.7,22.1,61.4,31,46.6,30.7C31.8,30.4,17.6,21,6.9,24.8C-3.9,28.5,-11.1,45.6,-21,51.7C-30.9,57.9,-43.4,53.2,-43.5,43.2C-43.5,33.2,-31.1,17.9,-22.8,9.4C-14.6,0.8,-10.5,-1.1,-14.7,-12.9C-18.9,-24.7,-31.3,-46.4,-30.3,-55.3C-29.2,-64.2,-14.6,-60.3,0.3,-60.8C15.3,-61.3,30.5,-66.3,43.5,-62.8Z" transform="translate(100 100)" />
</svg>
