<?xml version="1.0" standalone="no"?>
<svg viewBox="0 0 200 200" xmlns="http://www.w3.org/2000/svg">
  <path fill="#F1C21B" d="M21.2,-43.5C28.6,-32.3,36.6,-29,44.9,-23.1C53.3,-17.2,61.9,-8.6,62,0C62.1,8.7,53.6,17.3,50,31.5C46.4,45.6,47.7,65.2,40.1,73.3C32.6,81.4,16.3,77.9,0.2,77.6C-15.9,77.3,-31.9,80,-44.9,75.1C-57.9,70.2,-67.9,57.6,-72.4,43.8C-76.9,30,-75.8,15,-71.3,2.6C-66.7,-9.7,-58.6,-19.5,-49.4,-25.1C-40.2,-30.7,-29.8,-32.2,-21.4,-42.7C-13,-53.3,-6.5,-72.8,0.2,-73.2C6.9,-73.5,13.7,-54.6,21.2,-43.5Z" transform="translate(100 100)" />
</svg>
