<?xml version="1.0" standalone="no"?>
<svg viewBox="0 0 200 200" xmlns="http://www.w3.org/2000/svg">
  <path fill="#0F62FE" d="M44.6,-67.5C59.3,-59.9,73.6,-50.1,79.7,-36.5C85.8,-22.9,83.5,-5.6,80.7,11.3C77.8,28.3,74.3,44.8,64,53.9C53.7,62.9,36.5,64.4,21.4,65.5C6.2,66.6,-6.9,67.4,-21.8,66.6C-36.7,65.7,-53.4,63.3,-61.4,53.5C-69.3,43.8,-68.4,26.7,-66.3,12.3C-64.1,-2.2,-60.7,-14.2,-56.5,-26.8C-52.3,-39.5,-47.5,-52.9,-37.9,-62.8C-28.4,-72.7,-14.2,-79.2,0.4,-79.8C15,-80.4,29.9,-75.1,44.6,-67.5Z" transform="translate(100 100)" />
</svg>
